<svg width="57" height="73" viewBox="0 0 57 73" fill="none" xmlns="http://www.w3.org/2000/svg">
<path d="M55.3535 25.7225C53.4594 19.5598 44.5896 15.1249 39.5541 14.8939C38.954 14.9086 38.3568 14.8048 37.7967 14.5884C37.2367 14.3719 36.7249 14.0471 36.2907 13.6326C35.8564 13.2181 35.5081 12.7219 35.2659 12.1726C35.0237 11.6232 34.8922 11.0315 34.879 10.4313C34.879 8.74046 36.1448 6.73552 39.5449 6.73552C44.8576 6.64312 45.301 2.36528 45.5228 0.75763C45.5228 0.628279 45.5228 0.517406 45.5228 0.434251C45.537 0.389143 45.537 0.340768 45.5228 0.29566L45.6429 0H10.4778L10.5425 0.29566C10.5327 0.341345 10.5327 0.388567 10.5425 0.434251C10.5425 0.517406 10.5425 0.628279 10.5425 0.75763C10.718 2.36528 11.2077 6.64312 16.5111 6.7078C19.9112 6.7078 21.1308 8.74046 21.1862 10.4036C21.1452 11.6126 20.6316 12.7574 19.7557 13.5918C18.8798 14.4262 17.7115 14.8838 16.5019 14.8662C11.4664 15.0972 2.64277 19.5321 0.711742 25.6947C-1.65354 33.6314 2.47647 41.5218 4.37054 44.5523C6.88366 48.5807 16.9916 61.4882 19.4307 64.6203C18.9581 64.9338 18.5638 65.3518 18.2787 65.8421C17.9935 66.3324 17.8249 66.8817 17.7861 67.4476C17.7861 70.3395 22.3042 72.6124 28.0603 72.6124C33.8165 72.6124 38.3438 70.358 38.3438 67.4476C38.3046 66.8761 38.1332 66.3215 37.843 65.8276C37.5527 65.3338 37.1517 64.9141 36.6715 64.6018C39.1384 61.4881 49.237 48.5807 51.7686 44.5523C53.6165 41.5218 57.7835 33.6314 55.3535 25.7225ZM43.2037 0.572842C38.2425 1.7493 33.1591 2.33238 28.0603 2.30985C22.9771 2.32812 17.9095 1.74507 12.9632 0.572842H43.2037ZM37.7709 67.4476C37.7709 69.9791 33.41 72.0673 28.0603 72.0673C22.7107 72.0673 18.359 70.0069 18.359 67.4476C18.4045 66.9372 18.5718 66.4451 18.8467 66.0127C19.1216 65.5803 19.4961 65.22 19.9389 64.9622C22.4143 66.3514 25.2233 67.0353 28.0603 66.9394C30.8974 67.0363 33.7067 66.3523 36.1818 64.9622C36.6253 65.2201 37.0008 65.5802 37.2772 66.0125C37.5536 66.4447 37.7229 66.9367 37.7709 67.4476ZM37.7709 67.4476C37.7709 69.9791 33.41 72.0673 28.0603 72.0673C22.7107 72.0673 18.359 70.0069 18.359 67.4476C18.4045 66.9372 18.5718 66.4451 18.8467 66.0127C19.1216 65.5803 19.4961 65.22 19.9389 64.9622C22.4143 66.3514 25.2233 67.0353 28.0603 66.9394C30.8974 67.0363 33.7067 66.3523 36.1818 64.9622C36.6253 65.2201 37.0008 65.5802 37.2772 66.0125C37.5536 66.4447 37.7229 66.9367 37.7709 67.4476ZM36.1079 64.3986C36.0505 64.3819 35.9896 64.3819 35.9323 64.3986C33.5326 65.745 30.8105 66.4095 28.0603 66.3204C25.3102 66.4095 22.588 65.745 20.1884 64.3986C20.1342 64.3821 20.0763 64.3821 20.0221 64.3986C18.5068 62.4583 7.41954 48.3867 4.85099 44.2474C3.00311 41.2908 -1.04374 33.5759 1.32154 25.8703C3.16942 19.9386 11.7159 15.707 16.5943 15.4483C17.2689 15.4605 17.9393 15.3397 18.5673 15.0928C19.1953 14.8459 19.7684 14.4777 20.254 14.0092C20.7397 13.5408 21.1282 12.9812 21.3976 12.3625C21.6669 11.7439 21.8117 11.0782 21.8238 10.4036C21.8238 8.45404 20.3916 6.16267 16.585 6.11648C11.799 6.06104 11.3555 2.30985 11.1707 0.683715C16.6779 2.16373 22.3578 2.90323 28.0603 2.88269C33.7621 2.90991 39.442 2.17662 44.9499 0.702194C44.7652 2.32833 44.3309 6.07952 39.5449 6.13496C35.729 6.18115 34.3339 8.47252 34.3062 10.422C34.317 11.0963 34.4607 11.7617 34.729 12.3803C34.9974 12.9989 35.3851 13.5586 35.87 14.0271C36.3548 14.4957 36.9274 14.8641 37.5548 15.1111C38.1822 15.3581 38.8522 15.479 39.5264 15.4667C44.3771 15.707 52.9882 19.9571 54.8084 25.8703C57.1644 33.5575 53.1176 41.2724 51.2697 44.229C48.6827 48.3867 37.6416 62.4583 36.1079 64.417V64.3986ZM36.1079 64.3986C36.0505 64.3819 35.9896 64.3819 35.9323 64.3986C33.5326 65.745 30.8105 66.4095 28.0603 66.3204C25.3102 66.4095 22.588 65.745 20.1884 64.3986C20.1342 64.3821 20.0763 64.3821 20.0221 64.3986C18.5068 62.4583 7.41954 48.3867 4.85099 44.2474C3.00311 41.2908 -1.04374 33.5759 1.32154 25.8703C3.16942 19.9386 11.7159 15.707 16.5943 15.4483C17.2689 15.4605 17.9393 15.3397 18.5673 15.0928C19.1953 14.8459 19.7684 14.4777 20.254 14.0092C20.7397 13.5408 21.1282 12.9812 21.3976 12.3625C21.6669 11.7439 21.8117 11.0782 21.8238 10.4036C21.8238 8.45404 20.3916 6.16267 16.585 6.11648C11.799 6.06104 11.3555 2.30985 11.1707 0.683715C16.6779 2.16373 22.3578 2.90323 28.0603 2.88269C33.7621 2.90991 39.442 2.17662 44.9499 0.702194C44.7652 2.32833 44.3309 6.07952 39.5449 6.13496C35.729 6.18115 34.3339 8.47252 34.3062 10.422C34.317 11.0963 34.4607 11.7617 34.729 12.3803C34.9974 12.9989 35.3851 13.5586 35.87 14.0271C36.3548 14.4957 36.9274 14.8641 37.5548 15.1111C38.1822 15.3581 38.8522 15.479 39.5264 15.4667C44.3771 15.707 52.9882 19.9571 54.8084 25.8703C57.1644 33.5575 53.1176 41.2724 51.2697 44.229C48.6827 48.3867 37.6416 62.4583 36.1079 64.417V64.3986Z" fill="#FBD48E"/>
</svg>
